<?xml version="1.0" standalone="no"?>
<!DOCTYPE svg PUBLIC "-//W3C//DTD SVG 20010904//EN"
 "http://www.w3.org/TR/2001/REC-SVG-20010904/DTD/svg10.dtd">
<svg version="1.0" xmlns="http://www.w3.org/2000/svg"
 width="131.000000pt" height="88.000000pt" viewBox="0 0 131.000000 88.000000"
 preserveAspectRatio="xMidYMid meet">
<metadata>
Created by potrace 1.16, written by Peter Selinger 2001-2019
</metadata>
<g transform="translate(0.000000,88.000000) scale(0.100000,-0.100000)"
fill="#000000" stroke="none">
<path d="M0 440 l0 -440 655 0 655 0 0 440 0 440 -655 0 -655 0 0 -440z m577
306 c3 -2 2 -22 -2 -44 l-6 -39 -74 5 c-66 4 -81 2 -129 -22 -160 -78 -202
-277 -86 -409 56 -63 115 -90 200 -90 57 0 77 5 122 30 121 68 169 202 119
333 l-19 50 38 20 38 19 23 -52 c36 -81 34 -201 -5 -284 -33 -73 -104 -144
-174 -176 -38 -17 -66 -22 -142 -22 -82 0 -103 4 -150 26 -69 33 -133 97 -168
169 -24 48 -27 67 -27 150 0 85 3 101 28 150 68 133 190 204 335 196 41 -3 76
-7 79 -10z m439 -26 c78 -38 145 -111 174 -188 31 -81 25 -205 -14 -280 -62
-121 -165 -185 -306 -190 -102 -3 -115 3 -106 51 l7 36 78 -1 c95 -1 149 21
210 87 124 135 67 360 -108 420 -165 56 -333 -53 -348 -226 -5 -52 2 -88 32
-161 5 -13 -2 -21 -30 -32 -21 -9 -39 -16 -40 -16 -1 0 -12 21 -23 48 -31 72
-37 148 -18 223 56 218 291 328 492 229z"/>
</g>
</svg>
